<svg width="392" height="477" viewBox="0 0 392 477" fill="none" xmlns="http://www.w3.org/2000/svg">
<g clip-path="url(#clip0_4_39)">
<path d="M158.031 0.0771394C100.071 -1.29034 46.4456 17.9314 4.21886 51.0398C-5.08959 58.3395 2.34169 73.0351 13.8369 70.146C29.1833 66.294 45.3038 64.4257 61.8887 64.7917C159.753 66.9873 238.575 147.861 237.704 245.28C236.814 345.298 153.928 424.959 53.7607 422.686C46.8326 422.532 40.0012 421.993 33.286 421.068C21.4618 419.45 15.927 434.936 26.0482 441.195C61.2114 462.959 102.509 475.922 146.923 476.923C280.395 479.947 390.858 373.765 392 240.445C393.103 110.785 288.291 3.13952 158.031 0.0771394Z" fill="white"/>
<path d="M28.3124 102.06C121.881 92.6805 195.09 181.432 175.835 271.435C163.624 333.684 106.399 383.395 42.2654 383.183C38.2595 383.087 32.2602 382.894 28.3124 382.413C32.2215 381.873 38.0466 381.084 41.9751 380.275C108.392 368.16 160.005 309.917 159.482 242.217C159.676 168.489 101.135 109.341 28.3124 102.041V102.06Z" fill="white"/>
<path d="M18.3266 150.095C70.9842 142.16 118.726 183.839 123.739 235.63C128.538 280.911 101 325.383 57.0118 338.885C44.4909 342.66 31.2346 343.757 18.3266 341.812C133.511 321.916 133.473 169.876 18.3266 150.076V150.095Z" fill="white"/>
<path d="M11.0115 200.557C33.4408 193.893 58.3859 208.242 67.7137 229.159C78.1059 251.019 72.2808 279.351 53.3156 294.663C41.7429 304.312 25.3322 308.877 11.0115 304.543C24.6548 300.46 35.2986 293.257 42.5557 283.954C66.7654 252.618 48.8839 210.919 11.0115 200.577V200.557Z" fill="white"/>
</g>
<defs>
<clipPath id="clip0_4_39">
<rect width="392" height="477" fill="white"/>
</clipPath>
</defs>
</svg>
